<svg width="1500" height="690" viewBox="0 0 1500 690" fill="none" xmlns="http://www.w3.org/2000/svg">
<path d="M234.309 360.834V296.082H0V688.977H64.5161V528.663H172.418V464.036H64.5161V360.834H234.309Z" fill="#49194F"/>
<path d="M995.749 296.082H924.731V688.977H995.749V296.082Z" fill="#49194F"/>
<path d="M1052.51 391.771V456.523H1086.02V688.979H1150.66V391.771H1052.51Z" fill="#49194F"/>
<path d="M440.36 391.771V404.296C440.361 405.616 440.015 406.912 439.357 408.055C438.699 409.198 437.752 410.147 436.611 410.808C435.471 411.468 434.177 411.815 432.859 411.816C431.542 411.816 430.248 411.468 429.107 410.809C407.191 398.339 382.419 391.78 357.214 391.771C317.908 391.937 280.275 407.729 252.586 435.676C224.898 463.623 209.419 501.439 209.552 540.813C209.552 580.112 225.085 617.813 252.756 645.671C280.426 673.53 317.983 689.281 357.214 689.479C382.408 689.51 407.179 682.993 429.107 670.568C430.248 669.908 431.542 669.561 432.859 669.561C434.177 669.561 435.471 669.909 436.611 670.569C437.752 671.229 438.699 672.178 439.357 673.321C440.015 674.464 440.361 675.761 440.36 677.08V689.605H504.876V391.771H440.36ZM358.339 625.354C336.011 625.188 314.661 616.153 298.978 600.231C283.294 584.31 274.56 562.805 274.694 540.438C274.494 518.037 283.177 496.473 298.837 480.481C314.497 464.489 335.853 455.377 358.214 455.146C369.281 455.26 380.217 457.557 390.398 461.906C400.578 466.254 409.804 472.569 417.548 480.489C425.292 488.409 431.403 497.78 435.532 508.066C439.66 518.352 441.726 529.352 441.61 540.438C441.81 562.783 433.157 584.297 417.548 600.262C401.938 616.227 380.646 625.34 358.339 625.604V625.354Z" fill="#49194F"/>
<path d="M1435.86 391.771V404.296C1435.86 405.616 1435.51 406.912 1434.86 408.055C1434.2 409.198 1433.25 410.147 1432.11 410.808C1430.97 411.468 1429.68 411.815 1428.36 411.816C1427.04 411.816 1425.75 411.468 1424.61 410.809C1402.68 398.366 1377.91 391.808 1352.71 391.771C1313.41 391.937 1275.77 407.729 1248.09 435.676C1220.4 463.623 1204.92 501.439 1205.05 540.813C1205.05 580.112 1220.58 617.813 1248.25 645.671C1275.93 673.53 1313.48 689.281 1352.71 689.479C1378.03 689.54 1402.93 683.024 1424.98 670.568C1426.12 669.908 1427.42 669.561 1428.73 669.561C1430.05 669.561 1431.34 669.909 1432.49 670.569C1433.63 671.229 1434.57 672.178 1435.23 673.321C1435.89 674.464 1436.23 675.761 1436.23 677.08V689.605H1500V391.771H1435.86ZM1353.71 625.604C1331.38 625.373 1310.06 616.274 1294.42 600.305C1278.79 584.337 1270.12 562.805 1270.32 540.438C1270.2 529.352 1272.27 518.352 1276.4 508.066C1280.52 497.78 1286.64 488.409 1294.38 480.489C1302.12 472.569 1311.35 466.254 1321.53 461.906C1331.71 457.557 1342.65 455.26 1353.71 455.146C1364.81 455.227 1375.78 457.5 1385.99 461.832C1396.21 466.164 1405.47 472.472 1413.25 480.393C1421.03 488.315 1427.18 497.696 1431.34 507.999C1435.49 518.302 1437.58 529.325 1437.48 540.438C1437.58 551.544 1435.49 562.561 1431.33 572.857C1427.17 583.153 1421.03 592.526 1413.25 600.437C1405.46 608.349 1396.2 614.645 1385.98 618.964C1375.77 623.282 1364.8 625.539 1353.71 625.604V625.604Z" fill="#49194F"/>
<path d="M723.681 391.773C698.498 391.704 673.728 398.177 651.788 410.559C650.647 411.219 649.353 411.566 648.036 411.566C646.718 411.566 645.424 411.218 644.284 410.558C643.143 409.898 642.196 408.949 641.538 407.806C640.88 406.663 640.534 405.366 640.535 404.047V296.461H576.019V689.355H640.535V676.831C640.534 675.511 640.88 674.215 641.538 673.072C642.196 671.929 643.143 670.979 644.284 670.319C645.424 669.659 646.718 669.312 648.036 669.311C649.353 669.311 650.647 669.658 651.788 670.318C673.716 682.744 698.487 689.26 723.681 689.23C762.977 689.031 800.591 673.229 828.272 645.289C855.953 617.349 871.443 579.552 871.343 540.188C871.31 500.923 855.758 463.268 828.088 435.456C800.417 407.644 762.879 391.938 723.681 391.773V391.773ZM722.681 626.107C711.597 626.008 700.642 623.724 690.44 619.385C680.238 615.045 670.99 608.735 663.222 600.815C655.455 592.895 649.321 583.519 645.171 573.225C641.021 562.93 638.936 551.917 639.035 540.815C638.919 529.702 640.992 518.675 645.135 508.366C649.277 498.057 655.409 488.667 663.178 480.733C670.947 472.8 680.201 466.478 690.411 462.131C700.621 457.784 711.587 455.495 722.681 455.397C733.764 455.512 744.716 457.812 754.912 462.167C765.107 466.522 774.347 472.845 782.103 480.777C789.858 488.709 795.978 498.094 800.113 508.395C804.248 518.696 806.317 529.712 806.201 540.815C806.302 563.15 797.574 584.618 781.925 600.528C766.276 616.439 744.977 625.499 722.681 625.731V626.107Z" fill="#49194F"/>
<path d="M1199.93 221.814L1162.42 209.289C1156.71 207.48 1151.52 204.331 1147.28 200.104C1143.04 195.878 1139.87 190.696 1138.03 184.992L1125.53 147.418C1125.02 145.767 1123.99 144.326 1122.59 143.31C1121.19 142.294 1119.51 141.758 1117.78 141.782C1116.06 141.778 1114.38 142.322 1112.99 143.334C1111.59 144.347 1110.56 145.777 1110.03 147.418L1097.52 184.992C1095.93 190.601 1093.06 195.762 1089.13 200.066C1085.2 204.37 1080.33 207.699 1074.89 209.79L1037.38 222.315C1035.75 222.845 1034.32 223.883 1033.31 225.279C1032.3 226.674 1031.75 228.355 1031.76 230.08C1031.75 231.821 1032.28 233.521 1033.3 234.938C1034.31 236.355 1035.74 237.416 1037.38 237.97L1074.89 250.495C1080.61 252.119 1085.85 255.077 1090.2 259.127C1094.54 263.177 1097.87 268.202 1099.9 273.791L1112.4 311.364C1112.93 313.005 1113.97 314.435 1115.36 315.448C1116.76 316.461 1118.43 317.004 1120.16 317C1121.88 317.024 1123.57 316.488 1124.97 315.472C1126.36 314.457 1127.39 313.016 1127.91 311.364L1140.41 273.791C1142.25 268.086 1145.42 262.905 1149.66 258.678C1153.9 254.451 1159.09 251.302 1164.79 249.493L1202.3 236.968C1203.95 236.414 1205.38 235.353 1206.39 233.936C1207.4 232.519 1207.94 230.819 1207.93 229.078C1207.71 227.096 1206.78 225.261 1205.3 223.922C1203.83 222.583 1201.92 221.833 1199.93 221.814V221.814Z" fill="#49194F"/>
<path d="M1317.45 106.838L1292.45 98.822C1290.78 98.2869 1289.26 97.3598 1288.02 96.118C1286.78 94.8762 1285.86 93.3557 1285.32 91.6831L1277.44 66.634C1276.86 64.7396 1275.68 63.0844 1274.08 61.9121C1272.48 60.7397 1270.55 60.1119 1268.57 60.1212C1266.59 60.1119 1264.65 60.7397 1263.06 61.9121C1261.46 63.0844 1260.28 64.7396 1259.69 66.634L1251.81 91.6831C1251.28 93.3557 1250.35 94.8762 1249.11 96.118C1247.87 97.3598 1246.36 98.2869 1244.69 98.822L1219.68 106.838C1217.8 107.432 1216.17 108.619 1215.02 110.222C1213.87 111.825 1213.27 113.757 1213.3 115.73C1213.29 117.682 1213.91 119.586 1215.05 121.163C1216.2 122.741 1217.82 123.909 1219.68 124.497L1244.69 132.513C1246.36 133.048 1247.87 133.975 1249.11 135.217C1250.35 136.459 1251.28 137.979 1251.81 139.652L1259.69 164.701C1260.26 166.606 1261.44 168.273 1263.04 169.448C1264.64 170.623 1266.58 171.243 1268.57 171.214C1270.55 171.243 1272.49 170.623 1274.1 169.448C1275.7 168.273 1276.87 166.606 1277.44 164.701L1285.32 139.652C1285.86 137.979 1286.78 136.459 1288.02 135.217C1289.26 133.975 1290.78 133.048 1292.45 132.513L1317.45 124.497C1319.31 123.909 1320.93 122.741 1322.08 121.163C1323.23 119.586 1323.84 117.682 1323.83 115.73C1323.87 113.757 1323.27 111.825 1322.12 110.222C1320.97 108.619 1319.33 107.432 1317.45 106.838V106.838Z" fill="#49194F"/>
<path d="M1089.15 46.7174L1064.14 38.7018C1062.45 38.1745 1060.91 37.252 1059.65 36.0105C1058.39 34.769 1057.44 33.2443 1056.89 31.5628L1049.01 6.51372C1048.44 4.6086 1047.27 2.94199 1045.66 1.76666C1044.06 0.591344 1042.12 -0.0285121 1040.14 0.00100754C1038.17 -0.0217916 1036.24 0.60274 1034.66 1.77909C1033.08 2.95543 1031.93 4.61865 1031.38 6.51372L1023.38 31.5628C1022.83 33.2258 1021.9 34.737 1020.66 35.9763C1019.42 37.2155 1017.91 38.1487 1016.25 38.7018L991.248 46.7174C989.379 47.2879 987.747 48.4518 986.597 50.0333C985.446 51.6148 984.841 53.5282 984.871 55.4847C984.834 57.4577 985.435 59.39 986.584 60.9927C987.733 62.5955 989.369 63.7827 991.248 64.3771L1016.25 72.2675C1017.92 72.8418 1019.44 73.7971 1020.67 75.0579C1021.91 76.3186 1022.84 77.8502 1023.38 79.5317L1031.38 104.581C1031.95 106.453 1033.11 108.088 1034.69 109.24C1036.27 110.392 1038.18 110.999 1040.14 110.968C1042.37 111.168 1044.6 110.538 1046.39 109.199C1048.19 107.859 1049.44 105.903 1049.89 103.704L1057.76 78.655C1058.32 76.9601 1059.27 75.4198 1060.53 74.158C1061.79 72.8963 1063.32 71.9485 1065.02 71.3908L1090.02 63.5004C1091.9 62.906 1093.54 61.7188 1094.69 60.116C1095.84 58.5133 1096.44 56.581 1096.4 54.608C1096.19 52.6884 1095.38 50.8858 1094.07 49.4654C1092.77 48.045 1091.04 47.0818 1089.15 46.7174V46.7174Z" fill="#49194F"/>
</svg>
